<svg width="100" height="43" viewBox="0 0 100 43" fill="none" xmlns="http://www.w3.org/2000/svg">
<path d="M0.88 42V0.783997H22.32C25.6907 0.783997 28.4427 1.40266 30.576 2.64C32.752 3.87733 34.3733 5.60533 35.44 7.824C36.5067 10 37.04 12.5387 37.04 15.44C37.04 18.2133 36.336 20.6667 34.928 22.8C33.5627 24.8907 31.728 26.4907 29.424 27.6C29.8933 27.984 30.2987 28.4533 30.64 29.008C30.9813 29.52 31.3653 30.2453 31.792 31.184L36.528 42H23.984L19.632 32.08C19.2907 31.312 18.864 30.7787 18.352 30.48C17.8827 30.1387 17.2 29.968 16.304 29.968H12.912V42H0.88ZM12.912 20.752H19.248C20.9973 20.752 22.3413 20.304 23.28 19.408C24.2613 18.4693 24.752 17.1467 24.752 15.44C24.752 11.8133 23.0453 10 19.632 10H12.912V20.752ZM60.505 42.72L57.905 40.08C56.9983 40.8267 55.8383 41.4 54.425 41.8C53.0383 42.2 51.545 42.4 49.945 42.4C46.7983 42.4 44.2917 41.7467 42.425 40.44C40.5583 39.1067 39.625 37.3467 39.625 35.16C39.625 33.4267 40.0783 31.9467 40.985 30.72C41.8917 29.4933 43.1717 28.4267 44.825 27.52C44.0517 26.72 43.425 25.9333 42.945 25.16C42.4917 24.36 42.265 23.4267 42.265 22.36C42.265 20.4133 42.985 18.84 44.425 17.64C45.865 16.44 47.7983 15.84 50.225 15.84C52.6517 15.84 54.5983 16.4267 56.065 17.6C57.5317 18.7733 58.265 20.36 58.265 22.36C58.265 23.64 57.985 24.7467 57.425 25.68C56.865 26.5867 56.0383 27.48 54.945 28.36L58.945 32.44C59.2383 31.9333 59.385 31.3067 59.385 30.56V29.88H64.945V30.8C64.945 31.8667 64.7717 32.9067 64.425 33.92C64.105 34.9333 63.6783 35.7867 63.145 36.48L65.145 38.52L60.505 42.72ZM50.185 25.48C50.8783 25.0533 51.3983 24.6533 51.745 24.28C52.0917 23.88 52.265 23.36 52.265 22.72C52.265 22.1333 52.105 21.6667 51.785 21.32C51.465 20.9467 50.9717 20.76 50.305 20.76C49.585 20.76 49.065 20.96 48.745 21.36C48.425 21.7333 48.265 22.1867 48.265 22.72C48.265 23.3067 48.425 23.8 48.745 24.2C49.0917 24.6 49.5717 25.0267 50.185 25.48ZM49.945 37.32C51.4383 37.32 52.5717 36.9067 53.345 36.08L49.345 32C48.5183 32.3467 47.8917 32.7467 47.465 33.2C47.065 33.6533 46.865 34.24 46.865 34.96C46.865 35.7067 47.145 36.2933 47.705 36.72C48.265 37.12 49.0117 37.32 49.945 37.32ZM68.6144 42V0.783997H80.6464V32.784H99.2064V42H68.6144Z" fill="#E5C3A6"/>
</svg>
